<?xml version="1.0" standalone="no"?>
<!DOCTYPE svg PUBLIC "-//W3C//DTD SVG 1.1//EN" "http://www.w3.org/Graphics/SVG/1.1/DTD/svg11.dtd" >
<svg xmlns="http://www.w3.org/2000/svg">
<metadata></metadata>
<defs>
<font id="councilregular" horiz-adv-x="614" >
<font-face units-per-em="2048" ascent="1638" descent="-410" />
<missing-glyph horiz-adv-x="245" />
<glyph horiz-adv-x="2048" />
<glyph horiz-adv-x="2048" />
<glyph unicode="&#xd;" horiz-adv-x="245" />
<glyph unicode=" "  horiz-adv-x="245" />
<glyph unicode="&#x09;" horiz-adv-x="245" />
<glyph unicode="&#xa0;" horiz-adv-x="245" />
<glyph unicode="!" horiz-adv-x="368" d="M61 41v184l21 41h205l20 -41v-184l-20 -41h-205zM61 922v471l41 82h164l41 -82v-471l-82 -533h-82z" />
<glyph unicode="&#x22;" d="M41 1004l102 204h-82l-20 41v185l20 41h205l21 -41v-185l-41 -82l-164 -163h-41zM328 1004l102 204h-82l-20 41v185l20 41h205l20 -41v-185l-41 -82l-163 -163h-41z" />
<glyph unicode="#" horiz-adv-x="634" d="M10 553l31 143h123l51 226h-123l31 143h123l92 410h82l-92 -410h82l92 410h82l-92 -410h122l-30 -143h-123l-51 -226h122l-30 -143h-123l-92 -410h-82l92 410h-82l-92 -410h-82l92 410h-123zM246 696h82l51 226h-82z" />
<glyph unicode="$" horiz-adv-x="634" d="M10 164q18 18 29.5 66.5t11.5 138.5v225h133q0 -90 8.5 -154.5t22.5 -152.5l55 426l-209 209v184q0 86 -11 136t-30 69l164 164h205l21 143h61l-20 -143l163 -164q-18 -18 -29.5 -66.5t-11.5 -138.5v-82h-122q-8 70 -16.5 115t-20.5 90l-45 -328l204 -205v-327 q0 -86 11.5 -136.5t29.5 -68.5l-163 -164h-215l-21 -143h-61l20 143zM260 164q20 -20 37 -21q29 0 45 25.5t16 97.5v287q0 45 -34 98zM276 1065q0 -61 39 -102l50 352q-6 6 -17 10q-14 6 -20 6q-25 0 -38.5 -25.5t-13.5 -97.5v-143z" />
<glyph unicode="%" horiz-adv-x="983" d="M31 758q16 16 23 43.5t7 79.5v368q0 92 -30 123l102 103h225l31 -31h195l30 31h82l-327 -1475h-82l303 1372h-150q-16 -16 -23 -44t-7 -79v-368q0 -92 30 -123l-102 -103h-207zM205 819q0 -82 31 -82q30 0 30 82v492q0 82 -30 82q-31 0 -31 -82v-492zM543 102 q16 16 23 44t7 79v369q0 92 -30 123l102 102h205l102 -102q-16 -16 -23 -44t-7 -79v-369q-1 -92 30 -123l-102 -102h-207zM717 164q0 -82 31 -82q30 0 30 82v491q0 82 -30 82q-31 0 -31 -82v-491z" />
<glyph unicode="&#x26;" horiz-adv-x="716" d="M20 164q18 18 29.5 66.5t11.5 138.5v51q0 86 -11 136t-30 69l216 215l-123 471l163 164h277l72 -297l-103 -52q-29 106 -64.5 157.5t-78.5 68.5l-21 -41l113 -430h133l31 -123h-133l123 -471q25 -94 43 -134t49 -71l-41 -82h-221l-25 92l-92 -92h-154zM276 328 q0 -63 36.5 -103.5t93.5 -40.5l-119 451l-11 61v-368z" />
<glyph unicode="'" horiz-adv-x="368" d="M61 1004l103 204h-82l-21 41v185l21 41h205l20 -41v-185l-41 -82l-164 -163h-41z" />
<glyph unicode="(" horiz-adv-x="327" d="M41 532v410q0 236 74 410q53 127 151 225l62 61h82l-82 -122q-123 -184 -123 -472v-614q0 -287 123 -471l82 -123h-82l-62 62q-96 96 -151 225q-74 172 -74 409z" />
<glyph unicode=")" horiz-adv-x="327" d="M-82 -164l82 123q123 184 123 471v614q0 287 -123 472l-82 122h82l61 -61q96 -96 152 -225q74 -172 74 -410v-410q0 -236 -74 -409q-53 -127 -152 -225l-61 -62h-82z" />
<glyph unicode="*" horiz-adv-x="389" d="M45 1274v41l98 16v21l-98 16v41l16 31l31 24l68 -75l14 14l-31 92l31 21h41l31 -21l-31 -92l14 -14l68 75l31 -24l16 -31v-41l-98 -16v-21l98 -16v-41l-16 -31l-31 -24l-68 75l-14 -14l31 -92l-33 -21h-39l-31 21l31 92l-14 14l-68 -75l-31 24z" />
<glyph unicode="+" horiz-adv-x="696" d="M41 737v103h256v307h102v-307h256v-103h-256v-327h-102v327h-256z" />
<glyph unicode="," horiz-adv-x="368" d="M61 41v184l21 41h205l20 -41v-184l-41 -82l-164 -164h-41l103 205h-82z" />
<glyph unicode="-" horiz-adv-x="409" d="M20 573v164h369v-164h-369z" />
<glyph unicode="." horiz-adv-x="368" d="M61 41v184l21 41h205l20 -41v-184l-20 -41h-205z" />
<glyph unicode="/" horiz-adv-x="471" d="M0 -82l369 1638h102l-369 -1638h-102z" />
<glyph unicode="0" horiz-adv-x="696" d="M20 164q18 18 29.5 66.5t11.5 138.5v737q0 86 -11 136t-30 69l164 164h328l164 -164q-18 -18 -29.5 -66.5t-11.5 -138.5v-737q0 -86 11.5 -136.5t29.5 -68.5l-164 -164h-328zM297 266q0 -123 51 -123t51 123v942q0 123 -51 123t-51 -123v-942z" />
<glyph unicode="1" horiz-adv-x="368" d="M0 1311l82 164h225v-1188q0 -92 10 -133t41 -72l-41 -82h-256l-41 82q31 31 41.5 72t10.5 133v798q0 102 -16.5 151.5t-55.5 74.5z" />
<glyph unicode="2" horiz-adv-x="593" d="M0 1311l164 164h256l164 -164q-18 -18 -29.5 -66.5t-11.5 -138.5v-266l-267 -267q-61 -61 -61 -143v-184h92q53 0 81 49t42 197h123v-492h-512v512q0 82 61 143l144 144q61 61 61 143v266q0 123 -51 123q-35 0 -55 -88q-27 -111 -27 -321h-133v184q0 86 -11.5 136 t-29.5 69z" />
<glyph unicode="3" d="M0 164q18 18 29.5 66.5t11.5 138.5v184h143q0 -217 23.5 -313.5t58.5 -96.5q51 0 51 123v348q0 59 -23.5 91t-57.5 32h-82v144h82q33 0 57 32.5t24 90.5v204q0 123 -41 123q-33 0 -56 -65.5t-46 -241.5h-123v82q0 86 -11 136t-30 69l164 164h246l164 -164 q-18 -18 -29.5 -66.5t-11.5 -138.5v-211l-174 -86l184 -92v-348q0 -86 11.5 -136.5t29.5 -68.5l-164 -164h-266z" />
<glyph unicode="4" horiz-adv-x="573" d="M-10 369v276l174 522q18 55 27.5 93t9.5 65q0 41 -27 68l41 82h287l41 -82q-31 -31 -41 -72t-10 -133v-676h81v-143h-81v-82q0 -92 10 -133t41 -72l-41 -82h-256l-41 82q33 33 47 77t14 128v82h-276zM133 512h133v614l-133 -491v-123z" />
<glyph unicode="5" d="M10 164q18 18 29.5 66.5t11.5 138.5v143h144q0 -190 23.5 -279.5t57.5 -89.5q51 0 52 123v348q0 123 -62 123q-23 0 -44 -25.5t-38 -76.5l-123 61v779h523v-113l-113 -174h-184l-72 72v-390l72 72h153l123 -123v-450q0 -86 11.5 -136.5t29.5 -68.5l-164 -164h-266z" />
<glyph unicode="6" horiz-adv-x="675" d="M20 164q18 18 29.5 66.5t11.5 138.5v737q0 86 -11 136t-30 69l164 164h277l164 -164q-18 -18 -29.5 -66.5t-11.5 -138.5v-82h-133q-14 160 -41 233.5t-62 73.5q-51 0 -51 -123v-348l82 41h123l123 -123v-409q0 -86 11.5 -136.5t29.5 -68.5l-164 -164h-318zM297 266 q0 -123 51 -123t51 123v348q0 123 -51 123t-51 -123v-348z" />
<glyph unicode="7" horiz-adv-x="512" d="M0 922v553h492v-431q0 -76 -12.5 -125t-49.5 -141l-41 -102q-31 -78 -31 -184v-410l-41 -82h-174l-41 82v481l164 246q45 68 58.5 117t13.5 118v185h-92q-55 0 -86 -62q-37 -74 -37 -245h-123z" />
<glyph unicode="8" horiz-adv-x="696" d="M20 164q18 18 29.5 66.5t11.5 138.5v358l164 82l-153 76v221q0 86 -11.5 136t-29.5 69l164 164h307l164 -164q-18 -18 -29.5 -66.5t-11.5 -138.5v-221l-154 -76l164 -82v-358q0 -86 11.5 -136.5t29.5 -68.5l-164 -164h-328zM297 266q0 -123 51 -123t51 123v348 q0 123 -51 123t-51 -123v-348zM297 1004q0 -123 51 -123t51 123v204q0 123 -51 123t-51 -123v-204z" />
<glyph unicode="9" horiz-adv-x="696" d="M31 1311l164 164h307l164 -164q-18 -18 -29.5 -66.5t-11.5 -138.5v-737q0 -86 11.5 -136.5t29.5 -68.5l-164 -164h-287l-164 164q18 18 29.5 66.5t11.5 138.5v143h144q25 -215 45 -292t57 -77q51 0 51 123v430l-82 -41h-112l-123 123v328q0 86 -11.5 136t-29.5 69z M287 942q0 -123 51 -123t51 123v266q0 123 -51 123t-51 -123v-266z" />
<glyph unicode=":" horiz-adv-x="368" d="M61 41v184l21 41h205l20 -41v-184l-20 -41h-205zM61 676v184l21 41h205l20 -41v-184l-20 -41h-205z" />
<glyph unicode=";" horiz-adv-x="368" d="M61 41v184l21 41h205l20 -41v-184l-41 -82l-164 -164h-41l103 205h-82zM61 676v184l21 41h205l20 -41v-184l-20 -41h-205z" />
<glyph unicode="&#x3c;" horiz-adv-x="2048" d="M-41 737l655 656h123l-164 -328h615q72 0 112 41q20 20 41 61l72 144h604l-235 -574l235 -573h-604l-72 143q-25 49 -60.5 76t-92.5 27h-615l164 -328h-123z" />
<glyph unicode="=" horiz-adv-x="696" d="M61 635v102h574v-102h-574zM61 840v102h574v-102h-574z" />
<glyph unicode="&#x3e;" horiz-adv-x="2048" d="M31 164l235 573l-235 574h604l72 -144q25 -49 60.5 -75.5t92.5 -26.5h615l-164 328h123l655 -656l-655 -655h-123l164 328h-615q-72 0 -112 -41q-20 -20 -41 -62l-72 -143h-604z" />
<glyph unicode="?" horiz-adv-x="532" d="M0 1311l164 164h225l164 -164q-18 -18 -29.5 -66.5t-11.5 -138.5v-225l-205 -205q-61 -61 -61 -144v-143h-82l-51 103v163l102 154q45 68 58.5 117t13.5 118v164q0 123 -41 123q-82 0 -82 -348h-123v123q0 86 -11.5 136t-29.5 69zM102 41v184l21 41h205l20 -41v-184 l-20 -41h-205z" />
<glyph unicode="@" horiz-adv-x="1105" d="M61 737q0 334 150.5 556.5t361.5 222.5q205 0 342 -205q129 -195 129 -451q0 -252 -81.5 -377t-225.5 -125h-112l-41 236l-72 -37l-72 37l-10 -62q-4 -33 -4 -38q0 -43 45 -74l-31 -62h-153l-31 62q25 25 41 59.5t31 104.5l92 440q8 39 8 66q0 39 -43 67l35 72h256 l35 -72q-43 -27 -43 -67q0 -31 8 -66l92 -440q12 -66 29.5 -94.5t42.5 -28.5q41 0 71.5 92t30.5 266q0 252 -92 422q-104 193 -287 193q-170 0 -284.5 -199t-114.5 -498q0 -301 109.5 -498.5t279.5 -197.5q98 0 178 66.5t129 179.5l62 -41q-143 -287 -379 -287 q-203 0 -342.5 219t-139.5 559zM457 676h110l-55 317z" />
<glyph unicode="A" horiz-adv-x="655" d="M-51 82q33 33 51 75t31 119l133 902q8 51 8 55q2 16 2 45q0 41 -14.5 66.5t-46.5 48.5l41 82h348l41 -82q-35 -25 -48.5 -48.5t-13.5 -68.5q0 -31 11 -98l133 -902q12 -82 29.5 -120.5t52.5 -73.5l-41 -82h-287l-41 82q55 47 55 100q0 10 -4 43l-16 113l-97 -47l-96 47 l-16 -113q-4 -33 -4 -45q0 -55 55 -98l-41 -82h-184zM195 451h163l-82 614z" />
<glyph unicode="B" horiz-adv-x="716" d="M10 82q31 31 41 72t10 133v901q0 92 -10 133t-41 72l41 82h471l164 -164q-18 -35 -29.5 -88.5t-11.5 -116.5q0 -70 4 -121t17 -84l-185 -92l205 -102q-31 -47 -31 -215v-113q0 -74 11.5 -131t29.5 -84l-164 -164h-481zM307 164q0 -20 21 -21q41 0 69 107q23 84 23 190 q0 143 -35 230q-27 67 -56 67h-1q-20 0 -21 -20v-553zM307 901q0 -20 21 -20q29 0 60.5 63.5t31.5 161.5q0 96 -32 160.5t-60 64.5q-20 0 -21 -20v-410z" />
<glyph unicode="C" d="M20 164q18 18 29.5 66.5t11.5 138.5v737q0 86 -11 136t-30 69l164 164h410v-553h-143q0 195 -26 302t-67 107q-51 0 -51 -123v-942q0 -123 51 -123q41 0 67 98.5t26 290.5h143v-532h-410z" />
<glyph unicode="D" horiz-adv-x="706" d="M10 82q31 31 41 72t10 133v901q0 92 -10 133t-41 72l41 82h451l30 -103q74 -111 113 -239q51 -171 51 -396q0 -223 -51 -393q-39 -133 -113 -242l-30 -102h-451zM317 164q0 -20 21 -21q92 0 92 594q0 272 -31.5 433t-60.5 161q-20 0 -21 -20v-1147z" />
<glyph unicode="E" d="M10 82q31 31 41 72t10 133v901q0 92 -10 133t-41 72l41 82h543v-431h-113q-23 147 -57.5 220t-95.5 88l-21 -41v-430h10q35 0 53.5 48t18.5 105l82 -41v-368l-82 -41q0 53 -18.5 103t-53.5 50h-10v-573l21 -41q61 31 97 141.5t36 288.5h133v-553h-543z" />
<glyph unicode="F" horiz-adv-x="573" d="M10 82q31 31 41 72t10 133v901q0 92 -10 133t-41 72l41 82h522v-431h-112q-16 150 -45 221.5t-88 86.5l-21 -41v-441h10q35 0 53.5 48.5t18.5 105.5l82 -41v-369l-82 -41q0 53 -18.5 103.5t-53.5 50.5h-10v-440q0 -84 25 -133q14 -29 57 -72l-41 -82h-297z" />
<glyph unicode="G" horiz-adv-x="686" d="M20 164q18 18 29.5 66.5t11.5 138.5v737q0 86 -11 136t-30 69l164 164h430v-451h-133q-25 172 -48 239.5t-64 67.5q-61 0 -62 -123v-942q0 -123 51 -123t52 123v410h-62v143h318q-31 -109 -31 -246v-204q0 -86 11.5 -136.5t29.5 -68.5l-164 -164h-328z" />
<glyph unicode="H" horiz-adv-x="716" d="M10 82q31 31 41 72t10 133v901q0 92 -10 133t-41 72l41 82h256l41 -82q-27 -27 -34 -68t-7 -137v-307h103v307v43q0 72 -7.5 103.5t-33.5 58.5l41 82h256l41 -82q-31 -31 -41.5 -72t-10.5 -133v-901q0 -92 10.5 -133t41.5 -72l-41 -82h-256l-41 82q27 27 34 67.5t7 137.5 v450h-103v-450v-107q4 -61 41 -98l-41 -82h-256z" />
<glyph unicode="I" horiz-adv-x="368" d="M10 82q31 31 41 72t10 133v901q0 92 -10 133t-41 72l41 82h266l41 -82q-31 -31 -41 -72t-10 -133v-901q0 -92 10 -133t41 -72l-41 -82h-266z" />
<glyph unicode="J" horiz-adv-x="573" d="M-31 164q31 31 31 205v163l20 41h144v-307q0 -123 51 -123t51 123v922q0 70 -12 114t-59 91l41 82h286l41 -82q-31 -31 -41 -72t-10 -133v-819q0 -86 11.5 -136.5t29.5 -68.5l-164 -164h-256z" />
<glyph unicode="K" horiz-adv-x="696" d="M10 82q31 31 41 72t10 133v901q0 92 -10 133t-41 72l41 82h266l41 -82q-31 -31 -41 -72t-10 -133v-400l154 461q10 31 12 43q2 10 2 25q0 41 -35 76l41 82h195l41 -82q-43 -33 -55 -47q-25 -31 -48 -97l-71 -215l112 -758q16 -102 29.5 -136.5t52.5 -57.5l-41 -82h-266 l-41 82q14 14 21.5 34.5t7.5 43.5q0 16 -3 39.5t-5 36.5l-62 399l-41 -123v-225q0 -92 10.5 -133t40.5 -72l-41 -82h-266z" />
<glyph unicode="L" horiz-adv-x="573" d="M10 82q31 31 41 72t10 133v901q0 92 -10 133t-41 72l41 82h287l41 -82q-37 -37 -51 -72q-20 -49 -21 -133v-1024l21 -41q51 35 81.5 144.5t30.5 326.5h133v-594h-522z" />
<glyph unicode="M" horiz-adv-x="942" d="M10 82q31 31 41 72t10 133v901q0 92 -10 133t-41 72l41 82h318l20 -185l92 -532l92 532l21 185h297l41 -82q-31 -31 -41 -72t-10 -133v-901q0 -92 10 -133t41 -72l-41 -82h-266l-41 82q33 33 47 77t14 128v635l6 86l-170 -1008h-112l-168 987l4 -65v-635q0 -90 13 -130 t48 -75l-41 -82h-174z" />
<glyph unicode="N" horiz-adv-x="675" d="M0 1393l41 82h256l41 -215l133 -461v389q0 90 -13.5 130t-47.5 75l41 82h174l41 -82q-31 -31 -41.5 -72t-10.5 -133v-1188h-163l-21 143l-215 707v-563q0 -70 12.5 -114t59.5 -91l-41 -82h-195l-41 82q31 31 41 72t10 133v901q0 90 -13 130t-48 75z" />
<glyph unicode="O" horiz-adv-x="716" d="M20 164q18 18 29.5 66.5t11.5 138.5v737q0 86 -11 136t-30 69l164 164h348l164 -164q-18 -18 -29.5 -66.5t-11.5 -138.5v-737q0 -86 11.5 -136.5t29.5 -68.5l-164 -164h-348zM307 266q0 -123 51 -123q52 0 52 123v942q0 123 -52 123q-51 0 -51 -123v-942z" />
<glyph unicode="P" horiz-adv-x="675" d="M10 82q31 31 41 72t10 133v901q0 92 -10 133t-41 72l41 82h481l164 -164q-16 -16 -28.5 -84t-12.5 -162q0 -109 7.5 -169t23.5 -77l-225 -225h-154v-307q0 -84 25 -133q14 -29 57 -72l-41 -82h-297zM307 778q0 -20 21 -20q31 0 57 65q35 84 35 221q0 135 -32 211t-60 76 q-20 0 -21 -20v-533z" />
<glyph unicode="Q" horiz-adv-x="716" d="M20 164q18 18 29.5 66.5t11.5 138.5v737q0 86 -11 136t-30 69l164 164h348l164 -164q-18 -18 -29.5 -66.5t-11.5 -138.5v-737q0 -86 11.5 -136.5t29.5 -68.5l-164 -164h-61l10 -20q18 -41 82 -41h41l-51 -103h-225l-82 164h-62zM307 266q0 -123 51 -123q52 0 52 123v942 q0 123 -52 123q-51 0 -51 -123v-942z" />
<glyph unicode="R" horiz-adv-x="716" d="M10 82q31 31 41 72t10 133v901q0 92 -10 133t-41 72l41 82h481l164 -164q-16 -16 -28.5 -84t-12.5 -162q0 -109 7.5 -169t23.5 -77l-113 -71l82 -461q18 -102 34.5 -142t47.5 -63l-41 -82h-266l-41 82q14 14 21.5 34.5t7.5 43.5q0 16 -3 39.5t-5 36.5l-62 399l-41 -31 v-317q0 -92 10.5 -133t40.5 -72l-41 -82h-266zM307 799q0 -20 21 -21q31 0 57 64q35 82 35 213q0 129 -32 202.5t-60 73.5q-20 0 -21 -20v-512z" />
<glyph unicode="S" d="M20 1311l164 164h379v-451h-123q-25 184 -42 245.5t-50 61.5q-41 0 -41 -123v-123q0 -82 62 -143l204 -205v-368q0 -86 11.5 -136.5t29.5 -68.5l-163 -164h-400v594h133q0 -236 31 -356q25 -94 61 -95q51 0 52 123v266q0 82 -62 144l-205 205v225q0 86 -11 136t-30 69z " />
<glyph unicode="T" horiz-adv-x="655" d="M10 963v512h635v-512h-123v61q0 129 -10 206t-41 122l-20 -21v-1044q0 -70 12 -114t59 -91l-41 -82h-307l-41 82q37 37 54.5 79t17.5 126v1044l-21 21q-51 -78 -51 -328v-61h-123z" />
<glyph unicode="U" horiz-adv-x="675" d="M10 1393l41 82h277l41 -82q-31 -31 -46.5 -76t-15.5 -129v-860q0 -74 17.5 -119t54.5 -45t54.5 44t17.5 120v860q0 90 -13.5 130t-48.5 75l41 82h195l41 -82q-31 -31 -41.5 -72t-10.5 -133v-819q0 -86 11.5 -136.5t29.5 -68.5l-163 -164h-308l-164 164q18 18 29.5 66.5 t11.5 138.5v819q0 92 -10 133t-41 72z" />
<glyph unicode="V" d="M-51 1393l41 82h297l41 -82q-27 -27 -37 -43q-16 -27 -17 -66q0 -16 2 -24l89 -615l86 615q2 10 2 26q0 35 -17 64q-8 14 -37 43l41 82h195l41 -82q-33 -33 -50.5 -73t-31.5 -132l-143 -901q-10 -68 -11 -103q0 -72 41 -102l-41 -82h-256l-41 82q41 31 41 104 q0 33 -10 101l-143 901q-14 90 -31.5 131t-50.5 74z" />
<glyph unicode="W" horiz-adv-x="983" d="M-51 1393l41 82h286l41 -82q-23 -23 -33 -43.5t-10 -55.5q0 -23 2 -34l72 -512l72 512q2 14 2 36q0 31 -11.5 53.5t-31.5 43.5l41 82h246l41 -82q-23 -23 -33 -43.5t-10 -55.5q0 -23 2 -34l71 -512l72 512q2 14 2 36q0 31 -11.5 53.5t-31.5 43.5l41 82h184l41 -82 q-33 -33 -50 -73t-32 -132l-143 -901q-10 -68 -10 -103q0 -72 41 -102l-41 -82h-215l-41 82q41 31 41 104q0 33 -11 101l-81 573l-82 -573q-10 -68 -11 -103q0 -72 41 -102l-41 -82h-215l-41 82q41 31 41 104q0 33 -10 101l-143 901q-14 90 -31.5 131t-50.5 74z" />
<glyph unicode="X" d="M-31 82q33 25 48.5 54.5t33.5 109.5l123 491l-113 492q-16 78 -31.5 108.5t-49.5 55.5l40 82h267l41 -82q-39 -31 -39 -70q0 -12 8 -53l61 -266l62 266q8 41 8 53q0 39 -39 70l41 82h164l41 -82q-33 -25 -48.5 -54.5t-33.5 -109.5l-113 -451l123 -532q18 -76 34.5 -108.5 t47.5 -55.5l-41 -82h-266l-41 82q39 31 39 70q0 12 -8 53l-72 327l-72 -327q-8 -41 -8 -53q0 -39 39 -70l-41 -82h-164z" />
<glyph unicode="Y" horiz-adv-x="583" d="M-51 1393l41 82h276l41 -82q-37 -29 -37 -72q0 -20 6 -51l72 -348l72 348q6 31 6 53q0 41 -37 70l41 82h164l41 -82q-33 -25 -49.5 -56.5t-32.5 -107.5l-143 -656v-286q0 -70 12 -114t59 -91l-41 -82h-307l-41 82q37 37 54.5 79t17.5 126v286l-133 656 q-14 74 -31.5 106.5t-50.5 57.5z" />
<glyph unicode="Z" horiz-adv-x="573" d="M-10 82q35 35 51 68q25 47 41 137l184 1024l-20 41q-55 -49 -84 -141.5t-29 -247.5h-113v512h523l41 -82q-35 -35 -52 -68q-25 -47 -40 -137l-185 -1024l21 -41q112 95 112 424v6h123v-553h-532z" />
<glyph unicode="[" horiz-adv-x="327" d="M82 -143v1761h328v-62h-185v-1638h185v-61h-328z" />
<glyph unicode="\" horiz-adv-x="471" d="M0 1556h102l369 -1638h-102z" />
<glyph unicode="]" horiz-adv-x="327" d="M-82 -82h184v1638h-184v62h328v-1761h-328v61z" />
<glyph unicode="^" horiz-adv-x="450" d="M20 1147l164 328h82l164 -328h-51l-154 153l-153 -153h-52z" />
<glyph unicode="_" horiz-adv-x="1024" d="M0 -164h1024v-41h-1024v41z" />
<glyph unicode="`" horiz-adv-x="716" d="M164 1475h184l123 -246h-61z" />
<glyph unicode="a" horiz-adv-x="583" d="M-41 82q33 33 49.5 70.5t32.5 123.5l102 553q10 57 11 84q0 55 -52 91l41 81h297l41 -81q-51 -35 -51 -91q0 -27 10 -84l103 -553q14 -82 31.5 -121.5t50.5 -72.5l-41 -82h-246l-41 82q25 18 38 40.5t13 53.5q0 10 -4 39l-12 72l-86 -41l-86 41l-13 -72q-4 -29 -4 -41 q0 -53 52 -92l-41 -82h-154zM178 389h135l-67 399z" />
<glyph unicode="b" d="M10 82q31 31 41 72t10 133v512q0 92 -10 133t-41 72l41 81h400l122 -122q-30 -59 -30 -148v-6q0 -100 20 -154l-143 -71l170 -82q-27 -57 -27 -154v-61q0 -103 31 -164l-123 -123h-420zM266 139q0 -16 19 -16q23 0 48 54.5t25 150.5q0 74 -16 127q-25 77 -54 77h-1 q-20 0 -21 -14v-379zM266 649q0 -14 21 -14q18 0 44.5 48t26.5 116q0 72 -22.5 118t-48.5 46q-20 0 -21 -17v-297z" />
<glyph unicode="c" horiz-adv-x="532" d="M10 164q18 18 29.5 66.5t11.5 138.5v348q0 86 -11 136t-30 69l164 163h338v-450h-123q-16 178 -29.5 242.5t-42.5 64.5q-31 0 -41 -34t-10 -130v-471q0 -92 10.5 -128t40.5 -36q27 0 49.5 82t22.5 226h123v-451h-338z" />
<glyph unicode="d" d="M10 82q31 31 41 72t10 133v512q0 92 -10 133t-41 72l41 81h389l21 -81q72 -102 104 -187q49 -124 49 -274q0 -145 -49 -273q-35 -88 -104 -188l-21 -82h-389zM276 164q0 -20 21 -21q35 0 63.5 102.5t28.5 297.5q0 178 -28.5 288.5t-63.5 110.5q-20 0 -21 -20v-758z" />
<glyph unicode="e" horiz-adv-x="512" d="M10 82q31 31 41 72t10 133v512q0 92 -10 133t-41 72l41 81h441v-337h-93q0 94 -31.5 151t-80.5 74l-21 -41v-297q72 0 72 113l61 -31v-266l-61 -31q0 53 -19.5 82.5t-52.5 29.5v-378l21 -41q92 61 92 286h113v-399h-441z" />
<glyph unicode="f" horiz-adv-x="481" d="M10 82q31 31 41 72t10 133v512q0 92 -10 133t-41 72l41 81h430v-337h-92q-31 197 -102 225l-21 -41v-297q72 0 72 113l61 -31v-266l-61 -31q0 53 -19.5 82.5t-52.5 29.5v-266q0 -74 15.5 -111.5t50.5 -72.5l-41 -82h-240z" />
<glyph unicode="g" d="M10 164q18 18 29.5 66.5t11.5 138.5v348q0 86 -11 136t-30 69l164 163h358v-368h-102q-49 225 -102 225q-37 0 -49.5 -43t-12.5 -121v-471q0 -86 13.5 -125t37.5 -39q31 0 41.5 34t10.5 130v154h-62v133h291q-25 -74 -25 -225q0 -70 3 -119t28 -86l-164 -164h-266z" />
<glyph unicode="h" horiz-adv-x="634" d="M10 82q31 31 41 72t10 133v512q0 92 -10 133t-41 72l41 81h215l41 -81q-27 -27 -34 -68t-7 -137v-133h103v133v43q0 72 -7.5 103.5t-33.5 58.5l41 81h215l41 -81q-31 -31 -41.5 -72t-10.5 -133v-512q0 -92 10.5 -133t41.5 -72l-41 -82h-215l-41 82q27 27 34 67.5t7 137.5 v225h-103v-225v-107q4 -61 41 -98l-41 -82h-215z" />
<glyph unicode="i" horiz-adv-x="368" d="M10 82q37 37 54.5 75t17.5 109v553q0 59 -12.5 98t-59.5 87l41 81h266l41 -81q-37 -37 -51 -68q-20 -45 -20 -117v-553q0 -59 12 -98t59 -86l-41 -82h-266z" />
<glyph unicode="j" horiz-adv-x="491" d="M-31 143q31 31 31 205v62l20 41h123v-205q0 -49 12.5 -75t28.5 -26q41 0 41 101v573q0 74 -15 112t-50 73l41 81h239l41 -81q-31 -31 -41 -72t-10 -133v-430q0 -86 11.5 -136.5t29.5 -68.5l-164 -164h-194z" />
<glyph unicode="k" d="M10 82q31 31 41 72t10 133v512q0 92 -10 133t-41 72l41 81h215l41 -81q-27 -27 -34 -68t-7 -137v-215l123 297q14 31 14 63q0 35 -24 60l41 81h153l41 -81q-37 -29 -55 -52.5t-47 -91.5l-51 -123l112 -461q41 -163 82 -194l-41 -82h-225l-41 82q35 35 35 74q0 12 -3 30.5 t-11 49.5l-62 235l-41 -102v-82v-107q4 -61 41 -98l-41 -82h-215z" />
<glyph unicode="l" horiz-adv-x="491" d="M10 82q31 31 41 72t10 133v512q0 92 -10 133t-41 72l41 81h240l41 -81q-33 -33 -49.5 -73t-16.5 -112v-665l21 -41q92 61 92 317h113v-430h-441z" />
<glyph unicode="m" horiz-adv-x="819" d="M10 82q31 31 41 72t10 133v512q0 92 -10 133t-41 72l41 81h277l10 -102l72 -389l71 389l11 102h276l41 -81q-31 -31 -41 -72t-10 -133v-512q0 -92 10 -133t41 -72l-41 -82h-225l-41 82q31 31 41 72t10 133v389l4 72l-137 -748h-92l-138 737l5 -71v-379q0 -92 10 -133 t41 -72l-41 -82h-154z" />
<glyph unicode="n" horiz-adv-x="593" d="M0 1004l41 81h215l35 -153l119 -359v226q0 90 -13.5 130t-48.5 75l41 81h154l41 -81q-31 -31 -41.5 -72t-10.5 -133v-799h-143l-20 113l-168 501v-327q0 -94 15 -133t54 -72l-41 -82h-178l-41 82q31 31 41 72t10 133v512q0 90 -13 130t-48 75z" />
<glyph unicode="o" horiz-adv-x="634" d="M10 164q18 18 29.5 66.5t11.5 138.5v348q0 86 -11 136t-30 69l164 163h287l164 -163q-18 -18 -29.5 -66.5t-11.5 -138.5v-348q0 -86 11.5 -136.5t29.5 -68.5l-164 -164h-287zM266 266q0 -123 51 -123q52 0 52 123v553q0 123 -52 123q-51 0 -51 -123v-553z" />
<glyph unicode="p" horiz-adv-x="573" d="M10 82q31 31 41 72t10 133v512q0 92 -10 133t-41 72l41 81h400l143 -143q-10 -14 -20.5 -69.5t-10.5 -104.5q0 -53 6 -105.5t15 -68.5l-174 -174h-144v-154q0 -74 15.5 -111.5t50.5 -72.5l-41 -82h-240zM266 573q0 -20 21 -20q25 0 53.5 60.5t28.5 144.5q0 86 -28 140 t-54 54q-20 0 -21 -20v-359z" />
<glyph unicode="q" horiz-adv-x="634" d="M10 164q18 18 29.5 66.5t11.5 138.5v348q0 86 -11 136t-30 69l164 163h287l164 -163q-18 -18 -29.5 -66.5t-11.5 -138.5v-348q0 -86 11.5 -136.5t29.5 -68.5l-164 -164h-51l10 -20q18 -41 82 -41h20l-41 -82h-184l-72 143h-51zM266 266q0 -123 51 -123q52 0 52 123v553 q0 123 -52 123q-51 0 -51 -123v-553z" />
<glyph unicode="r" d="M10 82q31 31 41 72t10 133v512q0 92 -10 133t-41 72l41 81h400l143 -143q-14 -14 -22.5 -61t-8.5 -103q0 -51 6 -99t15 -65l-92 -57l71 -301q18 -76 33.5 -108.5t48.5 -65.5l-41 -82h-215l-41 82q27 27 27 76q0 23 -6 47l-62 246l-41 -31v-133q0 -96 9.5 -134t41.5 -71 l-41 -82h-225zM266 594q0 -20 21 -21q25 0 53.5 59.5t28.5 135.5q0 80 -28 132t-54 52q-20 0 -21 -20v-338z" />
<glyph unicode="s" horiz-adv-x="522" d="M10 922l164 163h297v-348h-102q-14 117 -36 176.5t-46 59.5q-18 0 -29.5 -22.5t-11.5 -80.5v-51q0 -39 10 -65.5t41 -57.5l184 -184v-143q0 -86 11.5 -136.5t29.5 -68.5l-164 -164h-317v430h113q0 -154 22.5 -235.5t48.5 -81.5q25 0 38 37.5t13 85.5v102q0 39 -10 65.5 t-41 57.5l-174 174v82q0 86 -11 136t-30 69z" />
<glyph unicode="t" horiz-adv-x="593" d="M10 666v419h574v-419h-113v30q0 102 -13.5 172t-37.5 95l-21 -21v-676q0 -70 16.5 -109.5t51.5 -74.5l-41 -82h-258l-41 82q35 35 51.5 73t16.5 111v676l-21 21q-51 -51 -51 -267v-30h-113z" />
<glyph unicode="u" horiz-adv-x="634" d="M10 1004l41 81h236l41 -81q-31 -31 -46.5 -76t-15.5 -129v-482q0 -74 17.5 -118.5t54.5 -44.5t54.5 44t17.5 119v482q0 90 -13.5 130t-48.5 75l41 81h195l41 -81q-31 -31 -41.5 -72t-10.5 -133v-430q0 -86 11.5 -136.5t29.5 -68.5l-163 -164h-267l-164 164 q18 18 29.5 66.5t11.5 138.5v430q0 92 -10 133t-41 72z" />
<glyph unicode="v" horiz-adv-x="563" d="M-41 1004l41 81h256l41 -81q-25 -18 -38 -41t-13 -54q0 -10 4 -39l78 -419l78 419q4 29 4 41q0 53 -52 93l41 81h164l41 -81q-53 -53 -82 -195l-112 -553q-4 -23 -7.5 -46.5t-3.5 -45.5q0 -63 31 -82l-41 -82h-215l-41 82q31 18 31 84q0 43 -10 90l-113 553 q-29 141 -82 195z" />
<glyph unicode="w" horiz-adv-x="849" d="M-41 1004l41 81h246l41 -81q-43 -35 -43 -82q0 -20 6 -52l63 -358l52 358q2 14 2 39q0 57 -50 95l41 81h215l41 -81q-41 -31 -41 -84q0 -12 2.5 -26.5t2.5 -23.5l51 -358l63 358q4 29 4 41q0 53 -51 93l41 81h164l41 -81q-33 -33 -49.5 -71t-32.5 -124l-102 -553 q-10 -51 -11 -96q0 -59 31 -78l-41 -82h-184l-41 82q28 15 28 80v55q-6 27 -8 39l-55 389l-57 -389q-8 -51 -9 -94q0 -61 29 -80l-41 -82h-184l-41 82q31 18 31 80q0 31 -4.5 55.5t-6.5 38.5l-102 553q-14 82 -31.5 122t-50.5 73z" />
<glyph unicode="x" horiz-adv-x="573" d="M-10 82q33 25 46 47.5t36 95.5l96 318l-86 317q-20 72 -34.5 95.5t-47.5 48.5l41 81h246l41 -81q-37 -29 -37 -68q0 -20 6 -45l41 -174l51 174q8 33 8 45q0 37 -39 68l41 81h144l41 -81q-29 -23 -44.5 -48.5t-37.5 -95.5l-96 -297l96 -338q20 -72 34.5 -95t47.5 -48 l-41 -82h-236l-41 82q39 31 39 68q0 8 -3 22t-5 23l-51 194l-62 -194q-4 -10 -6 -25q-2 -12 -2 -20q0 -37 39 -68l-41 -82h-143z" />
<glyph unicode="y" horiz-adv-x="481" d="M-51 1004l41 81h235l41 -81q-39 -31 -39 -72q0 -25 9 -51l51 -205l51 205q2 4 5 23.5t3 29.5q0 39 -39 70l41 81h144l40 -81q-29 -20 -43 -54.5t-38 -130.5l-113 -430v-102q0 -90 15.5 -129t52.5 -76l-41 -82h-259l-40 82q35 33 51 77t16 128v102l-102 430 q-23 96 -38.5 129t-43.5 56z" />
<glyph unicode="z" horiz-adv-x="501" d="M-10 82q33 33 49 65.5t33 98.5l164 686l-21 41q-45 -23 -68.5 -104t-23.5 -203h-103v419h451l41 -81q-33 -33 -49.5 -66t-32.5 -98l-164 -686l21 -41q92 61 92 286h113v-399h-461z" />
<glyph unicode="{" horiz-adv-x="327" d="M-20 737l133 133l-62 62q0 240 68 414q53 137 147 231l62 61h82l-82 -122q-123 -184 -123 -472q0 -45 12 -96t29 -67l-144 -144l144 -143q-16 -16 -28.5 -65.5t-12.5 -98.5q0 -287 123 -471l82 -123h-82l-62 62q-92 92 -145 229q-70 178 -70 416l62 61z" />
<glyph unicode="|" horiz-adv-x="471" d="M184 -82v1638h103v-1638h-103z" />
<glyph unicode="}" horiz-adv-x="327" d="M-82 -164l82 123q123 184 123 471q0 45 -12.5 96.5t-28.5 67.5l143 143l-143 144q16 16 28.5 65t12.5 98q0 287 -123 472l-82 122h82l61 -61q92 -92 146 -229q70 -178 69 -416l-61 -62l133 -133l-133 -133l61 -61q0 -240 -67 -414q-53 -137 -148 -231l-61 -62h-82z" />
<glyph unicode="~" horiz-adv-x="512" d="M20 563q0 47 48 103q61 72 157 71q33 -33 54 -43q39 -18 110 -18h31l72 72h20q0 -47 -47 -103q-61 -72 -158 -72q-33 33 -53 43q-39 18 -111 19h-30l-72 -72h-21z" />
<glyph unicode="&#xa1;" horiz-adv-x="368" d="M61 82v471l82 532h82l82 -532v-471l-41 -82h-164zM61 1249v185l21 41h205l20 -41v-185l-20 -41h-205z" />
<glyph unicode="&#xa2;" horiz-adv-x="593" d="M20 164q18 18 29.5 66.5t11.5 138.5v348q0 86 -11 136t-30 69l164 163h185l20 123h62l-21 -123l164 -163q-18 -18 -29.5 -66.5t-11.5 -138.5v-62h-113q-8 72 -19 117t-28 92l-117 -690q16 -31 52 -31q43 0 77.5 88t34.5 261h123v-123q0 -86 11.5 -136.5t29.5 -68.5 l-164 -164h-194l-21 -123h-61l20 123zM246 348l98 584q-10 10 -37 10q-51 0 -51 -123v-348z" />
<glyph unicode="&#xa3;" horiz-adv-x="655" d="M0 123q113 88 174 178q76 113 76 242v10h-168v82h164q-31 152 -164 225v246q0 86 -11.5 136t-29.5 69l164 164h235l164 -164q-18 -18 -29.5 -66.5t-11.5 -138.5v-82h-133q0 162 -35 246q-25 61 -57 61q-51 0 -51 -123v-20q0 -164 30 -287l21 -82q27 -106 27 -184h147v-82 h-143v-328h20q53 0 84 56q39 70 39 211h102v-123q0 -86 11.5 -136.5t29.5 -68.5l-163 -164h-205q-20 49 -33 70q-20 33 -49 32q-27 0 -44.5 -33.5t-17.5 -68.5h-82z" />
<glyph unicode="&#xa4;" horiz-adv-x="696" d="M0 635v82h102v102h-102v82h102v205q0 86 -11 136t-30 69l164 164h328l82 -164v-307h-123q-14 162 -44 244.5t-69 82.5q-61 0 -61 -123v-307h174v-82h-174v-102h174v-82h-174v-369q0 -123 61 -123q37 0 67 97.5t46 271.5h123v-348l-82 -164h-328l-164 164q18 18 29.5 66.5 t11.5 138.5v266h-102z" />
<glyph unicode="&#xa5;" horiz-adv-x="593" d="M-31 1393l41 82h256l41 -82q-37 -29 -37 -72q0 -20 6 -51l72 -348l72 348q6 31 6 53q0 41 -37 70l41 82h154l41 -82q-31 -23 -48.5 -58t-33.5 -106l-133 -553h133v-82h-144v-102h144v-82h-144v-123q0 -90 13.5 -130t48.5 -75l-41 -82h-256l-41 82q33 33 47 77t14 128v123 h-143v82h143v102h-143v82h133l-123 553q-27 123 -82 164z" />
<glyph unicode="&#xa6;" horiz-adv-x="471" d="M184 -82v696h103v-696h-103zM184 860v696h103v-696h-103z" />
<glyph unicode="&#xa7;" horiz-adv-x="552" d="M0 737l184 185l-82 82v102q0 86 -11 136t-30 69l164 164h277v-328h-103q-14 117 -35.5 176t-46.5 59q-31 0 -41 -27.5t-10 -74.5v-92q0 -61 62 -123l184 -184v-62q0 -88 11.5 -147.5t29.5 -77.5l-174 -174l92 -92v-164q0 -86 11.5 -136.5t29.5 -68.5l-164 -164h-297v389 h113q0 -152 24 -233q18 -63 48 -64q27 0 44 29t17 94v123q0 61 -61 123l-195 195v81q0 86 -11.5 136.5t-29.5 68.5zM184 635q0 -55 27 -94t65 -39q39 0 66 39t27 94v72q0 55 -27 94t-66 39t-65.5 -39t-26.5 -94v-72z" />
<glyph unicode="&#xa8;" horiz-adv-x="716" d="M143 1311v102l21 41h123l20 -41v-102l-20 -41h-123zM410 1311v102l20 41h123l20 -41v-102l-20 -41h-123z" />
<glyph unicode="&#xa9;" horiz-adv-x="1105" d="M61 737q0 332 148.5 555.5t353.5 223.5q203 0 342 -219.5t139 -559.5q0 -332 -148 -555t-353 -223q-203 0 -342.5 219t-139.5 559zM164 737q0 -301 109.5 -498.5t279.5 -197.5q162 0 275.5 201.5t113.5 494.5q0 301 -109.5 499t-279.5 198q-162 0 -275.5 -200 t-113.5 -497zM358 399q10 10 20.5 43t10.5 80v441q0 51 -9 80.5t-22 41.5l103 103h235l52 -103v-215h-93q0 117 -17 174.5t-44 57.5q-41 0 -41 -78v-553q0 -37 12.5 -59.5t28.5 -22.5q27 0 44 54.5t17 170.5h93v-215l-52 -102h-235z" />
<glyph unicode="&#xaa;" horiz-adv-x="491" d="M-51 666q25 25 41 59.5t30 103.5l93 441q8 39 8 65q0 39 -43 68l35 72h256l34 -72q-43 -27 -43 -68q0 -31 9 -65l92 -441q14 -66 29 -101t42 -62l-30 -62h-226l-30 62q23 14 34 31.5t11 43.5q0 8 -4 37l-11 62l-71 -37l-72 37l-10 -62q-4 -33 -4 -39q0 -43 45 -73 l-31 -62h-153zM150 922h110l-55 317z" />
<glyph unicode="&#xab;" horiz-adv-x="491" d="M20 635v82l160 389h66l-103 -430l103 -430h-66zM225 635v82l160 389h66l-103 -430l103 -430h-66z" />
<glyph unicode="&#xac;" horiz-adv-x="1802" d="M10 983v492h635v-492h-123q0 162 -11 251t-40 118l-20 -21v-1044q0 -90 13 -130t48 -75l-41 -82h-287l-41 82q33 33 47.5 77t14.5 128v1044l-21 21q-51 -51 -51 -369h-123zM532 225h1250v-61h-1229q-20 20 -21 61zM553 0l51 102h1178v-102h-1229zM666 471q31 31 41 72 t10 133v512q0 92 -10.5 133t-40.5 72l41 82h215l41 -82q-27 -27 -34 -68t-7 -137v-133h102v133v43q0 72 -7 103.5t-34 58.5l41 82h215l41 -82q-31 -31 -41 -72t-10 -133v-512q0 -92 10 -133t41 -72l-41 -82h-215l-41 82q27 27 34 68t7 137v225h-102v-225v-107q4 -61 41 -98 l-41 -82h-215zM1300 471q31 31 41.5 72t10.5 133v512q0 92 -10.5 133t-41.5 72l41 82h441v-338h-92q0 94 -32 151.5t-81 73.5l-21 -41v-297q72 0 72 113l62 -31v-266l-62 -31q0 53 -19.5 83t-52.5 30v-379l21 -41q92 61 92 286h113v-399h-441z" />
<glyph unicode="&#xad;" horiz-adv-x="696" d="M41 737v103h614v-103h-614z" />
<glyph unicode="&#xae;" horiz-adv-x="573" d="M41 1106q0 164 74.5 276.5t171.5 112.5q100 0 172.5 -110.5t72.5 -278.5q0 -164 -74.5 -276.5t-170.5 -112.5q-100 0 -173 110.5t-73 278.5zM88 1106q0 -147 59.5 -247.5t139.5 -100.5q86 0 143 100.5t57 247.5q0 143 -60 245.5t-140 102.5q-84 0 -141.5 -98.5 t-57.5 -249.5zM174 922q20 14 21 51v276q0 37 -21 51l10 21h164l41 -41q-10 -10 -13 -29.5t-3 -42.5t4 -50.5t8 -31.5l-27 -16l31 -147q4 -25 31 -41l-10 -21h-93l-10 21q16 12 10 41l-20 122l-31 -10v-102q0 -37 21 -51l-11 -21h-92zM266 1147q0 -10 4 -17q0 -2 6 -4 q8 0 19.5 23.5t11.5 58.5q0 37 -10 59.5t-21 22.5q-10 -10 -10 -20v-123z" />
<glyph unicode="&#xaf;" horiz-adv-x="716" d="M164 1311v102h389v-102h-389z" />
<glyph unicode="&#xb0;" horiz-adv-x="450" d="M31 1290q0 82 56 138.5t138 56.5q80 0 137.5 -57.5t57.5 -137.5q0 -82 -56.5 -138t-138.5 -56q-80 0 -137 57t-57 137zM92 1290q0 -55 39 -94t94 -39t94 39t39 94t-38.5 94t-94.5 39q-55 0 -94 -38.5t-39 -94.5z" />
<glyph unicode="&#xb1;" horiz-adv-x="1454" d="M10 82q31 31 41 72t10 133v512q0 92 -10 133t-41 72l41 81h430v-337h-92q-31 197 -102 225l-21 -41v-297q72 0 72 113l61 -31v-266l-61 -31q0 53 -19.5 82.5t-52.5 29.5v-266q0 -74 15.5 -111.5t50.5 -72.5l-41 -82h-240zM492 82q31 31 41 72t10 133v512q0 92 -10.5 133 t-40.5 72l40 81h431v-337h-93q-31 197 -102 225l-20 -41v-297q72 0 71 113l62 -31v-266l-62 -31q0 53 -19.5 82.5t-51.5 29.5v-266q0 -74 15 -111.5t50 -72.5l-41 -82h-240zM973 82q31 31 41 72t10 133v512q0 92 -10 133t-41 72l41 81h239l41 -81q-33 -33 -49 -73t-16 -112 v-665l20 -41q92 61 92 317h113v-430h-440z" />
<glyph unicode="&#xb2;" horiz-adv-x="409" d="M61 1475l82 81h129l82 -81q-8 -8 -14 -32t-6 -71v-133l-133 -133q-31 -31 -31 -72v-92h45q27 0 40 24.5t21 98.5h62v-246h-256v256q0 41 31 72l71 72q31 31 31 71v133q0 61 -25 62q-18 0 -29 -46t-11 -159h-68v92q0 43 -6 68.5t-15 34.5z" />
<glyph unicode="&#xb3;" horiz-adv-x="409" d="M47 901q8 8 14.5 31.5t6.5 71.5v92h71q0 -106 11.5 -155.5t29.5 -49.5q25 0 25 61v174q0 61 -41 62h-41v72h41q41 0 41 61v102q0 61 -21 62q-16 0 -27.5 -34t-23.5 -120h-61v41q0 43 -6.5 68.5t-14.5 34.5l82 81h123l82 -81q-8 -8 -14.5 -32t-6.5 -71v-104l-86 -43 l93 -47v-174q0 -43 6 -69t14 -34l-82 -82h-133z" />
<glyph unicode="&#xb4;" horiz-adv-x="716" d="M246 1229l123 246h184l-246 -246h-61z" />
<glyph unicode="&#xb5;" horiz-adv-x="962" d="M10 471q37 37 54.5 75t17.5 109v553q0 59 -12.5 98.5t-59.5 86.5l41 82h266l41 -82q-37 -37 -51 -68q-20 -45 -20 -117v-553q0 -59 12 -98t59 -86l-41 -82h-266zM41 0v102h860v-102h-860zM41 164v61h860v-61h-860zM369 1393l41 82h215l34 -154l119 -358v225q0 90 -13 130 t-48 75l41 82h153l41 -82q-31 -31 -41 -72t-10 -133v-799h-143l-21 113l-168 502v-328q0 -94 15.5 -133t54.5 -72l-41 -82h-178l-41 82q31 31 41 72t10 133v512q0 90 -13.5 130t-47.5 75z" />
<glyph unicode="&#xb6;" horiz-adv-x="655" d="M-20 973q0 131 57 244q41 80 127 176l20 82h400l41 -82q-37 -37 -52 -68q-20 -45 -20 -117v-1331l-41 -82h-154l-41 82q37 37 54.5 75t17.5 109v410h-205l-20 82q-109 121 -146.5 219t-37.5 201z" />
<glyph unicode="&#xb7;" horiz-adv-x="368" d="M61 696v185l21 41h205l20 -41v-185l-20 -41h-205z" />
<glyph unicode="&#xb8;" horiz-adv-x="716" d="M174 -102h41q59 0 82 41l31 61h123l-82 -164h-164z" />
<glyph unicode="&#xb9;" horiz-adv-x="409" d="M113 1475l41 81h122v-593q0 -41 9.5 -63t27.5 -40l-20 -41h-143l-21 41q18 18 26.5 40t8.5 63v399q0 51 -13.5 77.5t-37.5 35.5z" />
<glyph unicode="&#xba;" horiz-adv-x="532" d="M20 737q12 12 21.5 53t9.5 111v277q0 76 -7 111.5t-24 51.5l134 134h225l133 -134q-12 -12 -21.5 -53t-9.5 -110v-277q0 -76 7.5 -112t23.5 -52l-133 -133h-225zM225 819q0 -102 41 -102t41 102v441q0 102 -41 102t-41 -102v-441z" />
<glyph unicode="&#xbb;" horiz-adv-x="491" d="M41 246l102 430l-102 430h65l160 -389v-82l-160 -389h-65zM246 246l102 430l-102 430h65l160 -389v-82l-160 -389h-65z" />
<glyph unicode="&#xbc;" horiz-adv-x="409" d="M0 707v61h410v-61h-410zM41 102v123l92 277q18 53 19 80q0 20 -13 32l21 41h137l20 -41q-20 -20 -20 -102v-338h61v-72h-61v-41q0 -78 25 -102l-21 -41h-127l-20 41q16 16 23 37.5t7 64.5v41h-143zM113 174h71v256l4 62l-75 -287v-31zM113 1475l41 81h122v-593 q0 -41 9.5 -63t27.5 -40l-20 -41h-143l-21 41q18 18 26.5 40t8.5 63v399q0 51 -13.5 77.5t-37.5 35.5z" />
<glyph unicode="&#xbd;" horiz-adv-x="409" d="M0 707v61h410v-61h-410zM61 573l82 82h129l82 -82q-8 -8 -14 -31.5t-6 -70.5v-133l-133 -133q-31 -31 -31 -72v-92h45q27 0 40 24.5t21 98.5h62v-246h-256v256q0 41 31 72l71 71q31 31 31 72v133q0 61 -25 62q-18 0 -29 -46t-11 -159h-68v92q0 43 -6 68.5t-15 33.5z M113 1475l41 81h122v-593q0 -41 9.5 -63t27.5 -40l-20 -41h-143l-21 41q18 18 26.5 40t8.5 63v399q0 51 -13.5 77.5t-37.5 35.5z" />
<glyph unicode="&#xbe;" horiz-adv-x="409" d="M0 707v61h410v-61h-410zM41 102v123l92 277q18 53 19 80q0 20 -13 32l21 41h137l20 -41q-20 -20 -20 -102v-338h61v-72h-61v-41q0 -78 25 -102l-21 -41h-127l-20 41q16 16 23 37.5t7 64.5v41h-143zM47 901q8 8 14.5 31.5t6.5 71.5v92h71q0 -106 11.5 -155.5t29.5 -49.5 q25 0 25 61v174q0 61 -41 62h-41v72h41q41 0 41 61v102q0 61 -21 62q-16 0 -27.5 -34t-23.5 -120h-61v41q0 43 -6.5 68.5t-14.5 34.5l82 81h123l82 -81q-8 -8 -14.5 -32t-6.5 -71v-104l-86 -43l93 -47v-174q0 -43 6 -69t14 -34l-82 -82h-133zM113 174h71v256l4 62l-75 -287 v-31z" />
<glyph unicode="&#xbf;" horiz-adv-x="532" d="M-20 164q18 18 29 66.5t11 138.5v225l205 205q61 61 62 143v143h82l51 -102v-164l-103 -153q-45 -68 -58 -117t-13 -119v-164q0 -123 41 -123q82 0 82 349h123v-123q0 -86 11 -136.5t29 -68.5l-163 -164h-226zM184 1249v185l21 41h205l20 -41v-185l-20 -41h-205z" />
<glyph unicode="&#xc0;" horiz-adv-x="655" d="M-51 82q33 33 51 75t31 119l133 902q8 51 8 55q2 16 2 45q0 41 -14.5 66.5t-46.5 48.5l41 82h348l41 -82q-35 -25 -48.5 -48.5t-13.5 -68.5q0 -31 11 -98l133 -902q12 -82 29.5 -120.5t52.5 -73.5l-41 -82h-287l-41 82q55 47 55 100q0 10 -4 43l-16 113l-97 -47l-96 47 l-16 -113q-4 -33 -4 -45q0 -55 55 -98l-41 -82h-184zM174 1803h184l123 -246h-61zM195 451h163l-82 614z" />
<glyph unicode="&#xc1;" horiz-adv-x="655" d="M-51 82q33 33 51 75t31 119l133 902q8 51 8 55q2 16 2 45q0 41 -14.5 66.5t-46.5 48.5l41 82h348l41 -82q-35 -25 -48.5 -48.5t-13.5 -68.5q0 -31 11 -98l133 -902q12 -82 29.5 -120.5t52.5 -73.5l-41 -82h-287l-41 82q55 47 55 100q0 10 -4 43l-16 113l-97 -47l-96 47 l-16 -113q-4 -33 -4 -45q0 -55 55 -98l-41 -82h-184zM195 451h163l-82 614zM195 1557l123 246h184l-246 -246h-61z" />
<glyph unicode="&#xc2;" horiz-adv-x="655" d="M-51 82q33 33 51 75t31 119l133 902q8 51 8 55q2 16 2 45q0 41 -14.5 66.5t-46.5 48.5l41 82h348l41 -82q-35 -25 -48.5 -48.5t-13.5 -68.5q0 -31 11 -98l133 -902q12 -82 29.5 -120.5t52.5 -73.5l-41 -82h-287l-41 82q55 47 55 100q0 10 -4 43l-16 113l-97 -47l-96 47 l-16 -113q-4 -33 -4 -45q0 -55 55 -98l-41 -82h-184zM153 1557l133 266h82l133 -266h-40l-134 133l-133 -133h-41zM195 451h163l-82 614z" />
<glyph unicode="&#xc3;" horiz-adv-x="655" d="M-51 82q33 33 51 75t31 119l133 902q8 51 8 55q2 16 2 45q0 41 -14.5 66.5t-46.5 48.5l41 82h348l41 -82q-35 -25 -48.5 -48.5t-13.5 -68.5q0 -31 11 -98l133 -902q12 -82 29.5 -120.5t52.5 -73.5l-41 -82h-287l-41 82q55 47 55 100q0 10 -4 43l-16 113l-97 -47l-96 47 l-16 -113q-4 -33 -4 -45q0 -55 55 -98l-41 -82h-184zM103 1598q0 47 47 102q61 72 158 72q33 -33 53 -43q39 -18 111 -19h10l71 72h21q0 -47 -47 -102q-61 -72 -158 -72q-33 33 -53 43q-39 18 -111 18h-10l-72 -71h-20zM195 451h163l-82 614z" />
<glyph unicode="&#xc4;" horiz-adv-x="655" d="M-51 82q33 33 51 75t31 119l133 902q8 51 8 55q2 16 2 45q0 41 -14.5 66.5t-46.5 48.5l41 82h348l41 -82q-35 -25 -48.5 -48.5t-13.5 -68.5q0 -31 11 -98l133 -902q12 -82 29.5 -120.5t52.5 -73.5l-41 -82h-287l-41 82q55 47 55 100q0 10 -4 43l-16 113l-97 -47l-96 47 l-16 -113q-4 -33 -4 -45q0 -55 55 -98l-41 -82h-184zM123 1638v103l20 41h123l21 -41v-103l-21 -41h-123zM195 451h163l-82 614zM379 1638v103l20 41h123l21 -41v-103l-21 -41h-123z" />
<glyph unicode="&#xc5;" horiz-adv-x="655" d="M-51 82q33 33 51 75t31 119l133 902q8 51 8 55q2 16 2 45q0 41 -14.5 66.5t-46.5 48.5l41 82h348l41 -82q-35 -25 -48.5 -48.5t-13.5 -68.5q0 -31 11 -98l133 -902q12 -82 29.5 -120.5t52.5 -73.5l-41 -82h-287l-41 82q55 47 55 100q0 10 -4 43l-16 113l-97 -47l-96 47 l-16 -113q-4 -33 -4 -45q0 -55 55 -98l-41 -82h-184zM184 1700q0 61 41 102.5t102 41.5t102.5 -41.5t41.5 -102.5t-41 -102t-103 -41q-61 0 -102 41t-41 102zM195 451h163l-82 614zM235 1700q0 -39 26.5 -65.5t65.5 -26.5t66 26.5t27 65.5t-27 65.5t-66 26.5t-65.5 -26.5 t-26.5 -65.5z" />
<glyph unicode="&#xc6;" horiz-adv-x="921" d="M-113 82q39 35 64.5 75t48.5 119l256 902q14 47 20.5 79.5t6.5 53.5q0 29 -11.5 47t-35.5 35l51 82h614v-431h-113q-23 147 -57.5 220t-95.5 88l-21 -41v-430h11q35 0 53 48t18 105l82 -41v-368l-82 -41q0 53 -18.5 103t-52.5 50h-11v-573l21 -41q61 31 97 141.5 t36 288.5h133v-553h-543l-41 82q31 31 41.5 72t10.5 133v57l-113 -57l-102 51l-31 -113q-6 -20 -8 -30t-2 -31q0 -27 8 -46.5t33 -35.5l-52 -82h-184zM186 451h183v655z" />
<glyph unicode="&#xc7;" d="M20 164q18 18 29.5 66.5t11.5 138.5v737q0 86 -11 136t-30 69l164 164h410v-533h-143q0 193 -26 291t-67 98q-51 0 -51 -123v-942q0 -123 51 -123q41 0 67 98.5t26 290.5h143v-532h-143l-82 -164h-164l-31 62h41q61 0 82 41l31 61h-144z" />
<glyph unicode="&#xc8;" d="M10 82q31 31 41 72t10 133v901q0 92 -10 133t-41 72l41 82h543v-431h-113q-23 147 -57.5 220t-95.5 88l-21 -41v-430h10q35 0 53.5 48t18.5 105l82 -41v-368l-82 -41q0 53 -18.5 103t-53.5 50h-10v-573l21 -41q61 31 97 141.5t36 288.5h133v-553h-543zM144 1803h184 l123 -246h-61z" />
<glyph unicode="&#xc9;" d="M10 82q31 31 41 72t10 133v901q0 92 -10 133t-41 72l41 82h543v-431h-113q-23 147 -57.5 220t-95.5 88l-21 -41v-430h10q35 0 53.5 48t18.5 105l82 -41v-368l-82 -41q0 53 -18.5 103t-53.5 50h-10v-573l21 -41q61 31 97 141.5t36 288.5h133v-553h-543zM205 1557l123 246 h184l-246 -246h-61z" />
<glyph unicode="&#xca;" d="M10 82q31 31 41 72t10 133v901q0 92 -10 133t-41 72l41 82h543v-431h-113q-23 147 -57.5 220t-95.5 88l-21 -41v-430h10q35 0 53.5 48t18.5 105l82 -41v-368l-82 -41q0 53 -18.5 103t-53.5 50h-10v-573l21 -41q61 31 97 141.5t36 288.5h133v-553h-543zM143 1557l133 266 h82l133 -266h-40l-134 133l-133 -133h-41z" />
<glyph unicode="&#xcb;" d="M10 82q31 31 41 72t10 133v901q0 92 -10 133t-41 72l41 82h543v-431h-113q-23 147 -57.5 220t-95.5 88l-21 -41v-430h10q35 0 53.5 48t18.5 105l82 -41v-368l-82 -41q0 53 -18.5 103t-53.5 50h-10v-573l21 -41q61 31 97 141.5t36 288.5h133v-553h-543zM102 1639v102 l21 41h123l20 -41v-102l-20 -41h-123zM369 1639v102l20 41h123l20 -41v-102l-20 -41h-123z" />
<glyph unicode="&#xcc;" horiz-adv-x="368" d="M10 82q31 31 41 72t10 133v901q0 92 -10 133t-41 72l41 82h266l41 -82q-31 -31 -41 -72t-10 -133v-901q0 -92 10 -133t41 -72l-41 -82h-266zM21 1803h184l123 -246h-61z" />
<glyph unicode="&#xcd;" horiz-adv-x="368" d="M10 82q31 31 41 72t10 133v901q0 92 -10 133t-41 72l41 82h266l41 -82q-31 -31 -41 -72t-10 -133v-901q0 -92 10 -133t41 -72l-41 -82h-266zM41 1557l123 246h184l-246 -246h-61z" />
<glyph unicode="&#xce;" horiz-adv-x="368" d="M10 82q31 31 41 72t10 133v901q0 92 -10 133t-41 72l41 82h266l41 -82q-31 -31 -41 -72t-10 -133v-901q0 -92 10 -133t41 -72l-41 -82h-266zM10 1557l133 266h82l133 -266h-40l-134 133l-133 -133h-41z" />
<glyph unicode="&#xcf;" horiz-adv-x="368" d="M10 82q31 31 41 72t10 133v901q0 92 -10 133t-41 72l41 82h266l41 -82q-31 -31 -41 -72t-10 -133v-901q0 -92 10 -133t41 -72l-41 -82h-266zM10 1639v102l21 41h123l20 -41v-102l-20 -41h-123zM277 1639v102l20 41h123l20 -41v-102l-20 -41h-123z" />
<glyph unicode="&#xd0;" horiz-adv-x="716" d="M0 717v102h61v369q0 92 -10 133t-41 72l41 82h451l30 -103q74 -111 113 -239q51 -171 51 -396q0 -223 -51 -393q-39 -133 -113 -242l-30 -102h-451l-41 82q31 31 41 72t10 133v430h-61zM317 164q0 -20 21 -21q92 0 92 594q0 272 -31.5 433t-60.5 161q-20 0 -21 -20v-492 h62v-102h-62v-553z" />
<glyph unicode="&#xd1;" horiz-adv-x="675" d="M0 1393l41 82h256l41 -215l133 -461v389q0 90 -13.5 130t-47.5 75l41 82h174l41 -82q-31 -31 -41.5 -72t-10.5 -133v-1188h-163l-21 143l-215 707v-563q0 -70 12.5 -114t59.5 -91l-41 -82h-195l-41 82q31 31 41 72t10 133v901q0 90 -13 130t-48 75zM123 1598q0 47 47 102 q61 72 158 72q33 -33 53 -43q39 -18 111 -19h10l71 72h21q0 -47 -47 -102q-61 -72 -158 -72q-33 33 -53 43q-39 18 -111 18h-10l-72 -71h-20z" />
<glyph unicode="&#xd2;" horiz-adv-x="716" d="M20 164q18 18 29.5 66.5t11.5 138.5v737q0 86 -11 136t-30 69l164 164h348l164 -164q-18 -18 -29.5 -66.5t-11.5 -138.5v-737q0 -86 11.5 -136.5t29.5 -68.5l-164 -164h-348zM164 1803h184l123 -246h-61zM307 266q0 -123 51 -123q52 0 52 123v942q0 123 -52 123 q-51 0 -51 -123v-942z" />
<glyph unicode="&#xd3;" horiz-adv-x="716" d="M20 164q18 18 29.5 66.5t11.5 138.5v737q0 86 -11 136t-30 69l164 164h348l164 -164q-18 -18 -29.5 -66.5t-11.5 -138.5v-737q0 -86 11.5 -136.5t29.5 -68.5l-164 -164h-348zM246 1557l123 246h184l-246 -246h-61zM307 266q0 -123 51 -123q52 0 52 123v942q0 123 -52 123 q-51 0 -51 -123v-942z" />
<glyph unicode="&#xd4;" horiz-adv-x="716" d="M20 164q18 18 29.5 66.5t11.5 138.5v737q0 86 -11 136t-30 69l164 164h348l164 -164q-18 -18 -29.5 -66.5t-11.5 -138.5v-737q0 -86 11.5 -136.5t29.5 -68.5l-164 -164h-348zM184 1557l133 266h82l133 -266h-40l-134 133l-133 -133h-41zM307 266q0 -123 51 -123 q52 0 52 123v942q0 123 -52 123q-51 0 -51 -123v-942z" />
<glyph unicode="&#xd5;" horiz-adv-x="716" d="M20 164q18 18 29.5 66.5t11.5 138.5v737q0 86 -11 136t-30 69l164 164h348l164 -164q-18 -18 -29.5 -66.5t-11.5 -138.5v-737q0 -86 11.5 -136.5t29.5 -68.5l-164 -164h-348zM123 1598q0 47 47 102q61 72 158 72q33 -33 53 -43q39 -18 111 -19h10l71 72h21 q0 -47 -47 -102q-61 -72 -158 -72q-33 33 -53 43q-39 18 -111 18h-10l-72 -71h-20zM307 266q0 -123 51 -123q52 0 52 123v942q0 123 -52 123q-51 0 -51 -123v-942z" />
<glyph unicode="&#xd6;" horiz-adv-x="716" d="M20 164q18 18 29.5 66.5t11.5 138.5v737q0 86 -11 136t-30 69l164 164h348l164 -164q-18 -18 -29.5 -66.5t-11.5 -138.5v-737q0 -86 11.5 -136.5t29.5 -68.5l-164 -164h-348zM143 1639v102l21 41h123l20 -41v-102l-20 -41h-123zM307 266q0 -123 51 -123q52 0 52 123v942 q0 123 -52 123q-51 0 -51 -123v-942zM410 1639v102l20 41h123l20 -41v-102l-20 -41h-123z" />
<glyph unicode="&#xd7;" horiz-adv-x="696" d="M51 563l225 225l-225 226l72 71l225 -225l225 225l72 -71l-225 -226l225 -225l-72 -71l-225 225l-225 -225z" />
<glyph unicode="&#xd8;" horiz-adv-x="716" d="M20 164q18 18 29.5 66.5t11.5 138.5v737q0 86 -11 136t-30 69l164 164h338l41 122h72l-57 -167l118 -119q-18 -18 -29.5 -66.5t-11.5 -138.5v-737q0 -86 11.5 -136.5t29.5 -68.5l-164 -164h-337l-41 -123h-72l57 168zM287 573l133 574v41q0 74 -17.5 108.5t-44.5 34.5 t-44 -34.5t-17 -108.5v-492zM297 287q0 -74 17.5 -109t43.5 -35q27 0 44.5 35t17.5 109v491l10 123l-133 -573v-41z" />
<glyph unicode="&#xd9;" horiz-adv-x="675" d="M10 1393l41 82h277l41 -82q-31 -31 -46.5 -76t-15.5 -129v-860q0 -74 17.5 -119t54.5 -45t54.5 44t17.5 120v860q0 90 -13.5 130t-48.5 75l41 82h195l41 -82q-31 -31 -41.5 -72t-10.5 -133v-819q0 -86 11.5 -136.5t29.5 -68.5l-163 -164h-308l-164 164q18 18 29.5 66.5 t11.5 138.5v819q0 92 -10 133t-41 72zM164 1803h184l123 -246h-61z" />
<glyph unicode="&#xda;" horiz-adv-x="675" d="M10 1393l41 82h277l41 -82q-31 -31 -46.5 -76t-15.5 -129v-860q0 -74 17.5 -119t54.5 -45t54.5 44t17.5 120v860q0 90 -13.5 130t-48.5 75l41 82h195l41 -82q-31 -31 -41.5 -72t-10.5 -133v-819q0 -86 11.5 -136.5t29.5 -68.5l-163 -164h-308l-164 164q18 18 29.5 66.5 t11.5 138.5v819q0 92 -10 133t-41 72zM226 1557l123 246h184l-246 -246h-61z" />
<glyph unicode="&#xdb;" horiz-adv-x="675" d="M10 1393l41 82h277l41 -82q-31 -31 -46.5 -76t-15.5 -129v-860q0 -74 17.5 -119t54.5 -45t54.5 44t17.5 120v860q0 90 -13.5 130t-48.5 75l41 82h195l41 -82q-31 -31 -41.5 -72t-10.5 -133v-819q0 -86 11.5 -136.5t29.5 -68.5l-163 -164h-308l-164 164q18 18 29.5 66.5 t11.5 138.5v819q0 92 -10 133t-41 72zM184 1557l133 266h82l133 -266h-40l-134 133l-133 -133h-41z" />
<glyph unicode="&#xdc;" horiz-adv-x="675" d="M10 1393l41 82h277l41 -82q-31 -31 -46.5 -76t-15.5 -129v-860q0 -74 17.5 -119t54.5 -45t54.5 44t17.5 120v860q0 90 -13.5 130t-48.5 75l41 82h195l41 -82q-31 -31 -41.5 -72t-10.5 -133v-819q0 -86 11.5 -136.5t29.5 -68.5l-163 -164h-308l-164 164q18 18 29.5 66.5 t11.5 138.5v819q0 92 -10 133t-41 72zM133 1639v102l21 41h123l20 -41v-102l-20 -41h-123zM400 1639v102l20 41h123l20 -41v-102l-20 -41h-123z" />
<glyph unicode="&#xdd;" horiz-adv-x="583" d="M-51 1393l41 82h276l41 -82q-37 -29 -37 -72q0 -20 6 -51l72 -348l72 348q6 31 6 53q0 41 -37 70l41 82h164l41 -82q-33 -25 -49.5 -56.5t-32.5 -107.5l-143 -656v-286q0 -70 12 -114t59 -91l-41 -82h-307l-41 82q37 37 54.5 79t17.5 126v286l-133 656 q-14 74 -31.5 106.5t-50.5 57.5zM205 1557l123 246h184l-246 -246h-61z" />
<glyph unicode="&#xde;" horiz-adv-x="675" d="M10 82q31 31 41 72t10 133v901q0 92 -10 133t-41 72l41 82h266l41 -82q-31 -31 -41 -68t-10 -117h225l164 -164q-16 -16 -28.5 -87.5t-12.5 -168.5q0 -109 7.5 -169t23.5 -76l-194 -195h-185v-61q0 -92 10.5 -133t40.5 -72l-41 -82h-266zM307 512q0 -20 21 -20 q31 0 57 65q35 84 35 221q0 135 -32 211t-60 76q-20 0 -21 -21v-532z" />
<glyph unicode="&#xdf;" horiz-adv-x="1044" d="M10 922l164 163h297v-348h-102q-14 117 -36 176.5t-46 59.5q-18 0 -29.5 -22.5t-11.5 -80.5v-51q0 -39 10 -65.5t41 -57.5l184 -184v-143q0 -86 11.5 -136.5t29.5 -68.5l-164 -164h-317v430h113q0 -154 22.5 -235.5t48.5 -81.5q25 0 38 37.5t13 85.5v102q0 39 -10 65.5 t-41 57.5l-174 174v82q0 86 -11 136t-30 69zM532 922l164 163h297v-348h-102q-14 117 -35.5 176.5t-46.5 59.5q-18 0 -29.5 -22.5t-11.5 -80.5v-51q0 -39 10 -65.5t41 -57.5l185 -184v-143q0 -86 11 -136.5t29 -68.5l-163 -164h-318v430h113q0 -154 22.5 -235.5t49.5 -81.5 q25 0 38 37.5t13 85.5v102q0 39 -10.5 65.5t-40.5 57.5l-175 174v82q0 86 -11 136t-30 69z" />
<glyph unicode="&#xe0;" horiz-adv-x="583" d="M-41 82q33 33 49.5 70.5t32.5 123.5l102 553q10 57 11 84q0 55 -52 91l41 81h297l41 -81q-51 -35 -51 -91q0 -27 10 -84l103 -553q14 -82 31.5 -121.5t50.5 -72.5l-41 -82h-246l-41 82q25 18 38 40.5t13 53.5q0 10 -4 39l-12 72l-86 -41l-86 41l-13 -72q-4 -29 -4 -41 q0 -53 52 -92l-41 -82h-154zM82 1414h184l123 -246h-61zM178 389h135l-67 399z" />
<glyph unicode="&#xe1;" horiz-adv-x="583" d="M-41 82q33 33 49.5 70.5t32.5 123.5l102 553q10 57 11 84q0 55 -52 91l41 81h297l41 -81q-51 -35 -51 -91q0 -27 10 -84l103 -553q14 -82 31.5 -121.5t50.5 -72.5l-41 -82h-246l-41 82q25 18 38 40.5t13 53.5q0 10 -4 39l-12 72l-86 -41l-86 41l-13 -72q-4 -29 -4 -41 q0 -53 52 -92l-41 -82h-154zM178 389h135l-67 399zM205 1168l123 246h184l-246 -246h-61z" />
<glyph unicode="&#xe2;" horiz-adv-x="583" d="M-41 82q33 33 49.5 70.5t32.5 123.5l102 553q10 57 11 84q0 55 -52 91l41 81h297l41 -81q-51 -35 -51 -91q0 -27 10 -84l103 -553q14 -82 31.5 -121.5t50.5 -72.5l-41 -82h-246l-41 82q25 18 38 40.5t13 53.5q0 10 -4 39l-12 72l-86 -41l-86 41l-13 -72q-4 -29 -4 -41 q0 -53 52 -92l-41 -82h-154zM112 1168l133 266h82l133 -266h-40l-134 133l-133 -133h-41zM178 389h135l-67 399z" />
<glyph unicode="&#xe3;" horiz-adv-x="583" d="M-41 82q33 33 49.5 70.5t32.5 123.5l102 553q10 57 11 84q0 55 -52 91l41 81h297l41 -81q-51 -35 -51 -91q0 -27 10 -84l103 -553q14 -82 31.5 -121.5t50.5 -72.5l-41 -82h-246l-41 82q25 18 38 40.5t13 53.5q0 10 -4 39l-12 72l-86 -41l-86 41l-13 -72q-4 -29 -4 -41 q0 -53 52 -92l-41 -82h-154zM62 1209q0 47 47 102q61 72 158 72q33 -33 53 -43q39 -18 111 -19h10l71 72h21q0 -47 -47 -102q-61 -72 -158 -72q-33 33 -53 43q-39 18 -111 18h-10l-72 -71h-20zM178 389h135l-67 399z" />
<glyph unicode="&#xe4;" horiz-adv-x="583" d="M-41 82q33 33 49.5 70.5t32.5 123.5l102 553q10 57 11 84q0 55 -52 91l41 81h297l41 -81q-51 -35 -51 -91q0 -27 10 -84l103 -553q14 -82 31.5 -121.5t50.5 -72.5l-41 -82h-246l-41 82q25 18 38 40.5t13 53.5q0 10 -4 39l-12 72l-86 -41l-86 41l-13 -72q-4 -29 -4 -41 q0 -53 52 -92l-41 -82h-154zM92 1249v103l21 41h123l20 -41v-103l-20 -41h-123zM178 389h135l-67 399zM328 1249v103l20 41h123l21 -41v-103l-21 -41h-123z" />
<glyph unicode="&#xe5;" horiz-adv-x="583" d="M-41 82q33 33 49.5 70.5t32.5 123.5l102 553q10 57 11 84q0 55 -52 91l41 81h297l41 -81q-51 -35 -51 -91q0 -27 10 -84l103 -553q14 -82 31.5 -121.5t50.5 -72.5l-41 -82h-246l-41 82q25 18 38 40.5t13 53.5q0 10 -4 39l-12 72l-86 -41l-86 41l-13 -72q-4 -29 -4 -41 q0 -53 52 -92l-41 -82h-154zM143 1311q0 61 41 102.5t102 41.5t102.5 -41.5t41.5 -102.5t-41 -102t-103 -41q-61 0 -102 41t-41 102zM178 389h135l-67 399zM194 1311q0 -39 26.5 -65.5t65.5 -26.5t66 26.5t27 65.5t-27 65.5t-66 26.5t-65.5 -26.5t-26.5 -65.5z" />
<glyph unicode="&#xe6;" horiz-adv-x="798" d="M-92 82q39 39 47 51q23 33 55 123l215 573q16 41 17 80q0 55 -47 95l41 81h542v-337h-92q0 94 -31.5 151t-81.5 74l-20 -41v-297q72 0 72 113l61 -31v-266l-61 -31q0 53 -19.5 82.5t-52.5 29.5v-378l20 -41q92 61 93 286h112v-399h-440l-41 82q31 31 41 72t10 133 l-112 -58l-97 47l-16 -51q-6 -20 -8 -30t-2 -31q0 -59 41 -82l-41 -82h-164zM174 369h174v481z" />
<glyph unicode="&#xe7;" horiz-adv-x="532" d="M10 164q18 18 29.5 66.5t11.5 138.5v348q0 86 -11 136t-30 69l164 163h338v-450h-123q-16 178 -29.5 242.5t-42.5 64.5q-31 0 -41 -34t-10 -130v-471q0 -92 10.5 -128t40.5 -36q27 0 49.5 82t22.5 226h123v-451h-113l-71 -143h-144l-30 61h30q61 0 82 41l21 41h-113z" />
<glyph unicode="&#xe8;" horiz-adv-x="512" d="M10 82q31 31 41 72t10 133v512q0 92 -10 133t-41 72l41 81h441v-337h-93q0 94 -31.5 151t-80.5 74l-21 -41v-297q72 0 72 113l61 -31v-266l-61 -31q0 53 -19.5 82.5t-52.5 29.5v-378l21 -41q92 61 92 286h113v-399h-441zM103 1414h184l123 -246h-61z" />
<glyph unicode="&#xe9;" horiz-adv-x="512" d="M10 82q31 31 41 72t10 133v512q0 92 -10 133t-41 72l41 81h441v-337h-93q0 94 -31.5 151t-80.5 74l-21 -41v-297q72 0 72 113l61 -31v-266l-61 -31q0 53 -19.5 82.5t-52.5 29.5v-378l21 -41q92 61 92 286h113v-399h-441zM144 1168l123 246h184l-246 -246h-61z" />
<glyph unicode="&#xea;" horiz-adv-x="512" d="M10 82q31 31 41 72t10 133v512q0 92 -10 133t-41 72l41 81h441v-337h-93q0 94 -31.5 151t-80.5 74l-21 -41v-297q72 0 72 113l61 -31v-266l-61 -31q0 53 -19.5 82.5t-52.5 29.5v-378l21 -41q92 61 92 286h113v-399h-441zM102 1168l133 266h82l133 -266h-40l-134 133 l-133 -133h-41z" />
<glyph unicode="&#xeb;" horiz-adv-x="512" d="M10 82q31 31 41 72t10 133v512q0 92 -10 133t-41 72l41 81h441v-337h-93q0 94 -31.5 151t-80.5 74l-21 -41v-297q72 0 72 113l61 -31v-266l-61 -31q0 53 -19.5 82.5t-52.5 29.5v-378l21 -41q92 61 92 286h113v-399h-441zM51 1249v103l21 41h123l20 -41v-103l-20 -41h-123 zM297 1249v103l20 41h123l21 -41v-103l-21 -41h-123z" />
<glyph unicode="&#xec;" horiz-adv-x="368" d="M10 82q37 37 54.5 75t17.5 109v553q0 59 -12.5 98t-59.5 87l41 81h266l41 -81q-37 -37 -51 -68q-20 -45 -20 -117v-553q0 -59 12 -98t59 -86l-41 -82h-266zM10 1414h184l123 -246h-61z" />
<glyph unicode="&#xed;" horiz-adv-x="368" d="M10 82q37 37 54.5 75t17.5 109v553q0 59 -12.5 98t-59.5 87l41 81h266l41 -81q-37 -37 -51 -68q-20 -45 -20 -117v-553q0 -59 12 -98t59 -86l-41 -82h-266zM82 1168l123 246h184l-246 -246h-61z" />
<glyph unicode="&#xee;" horiz-adv-x="368" d="M10 82q37 37 54.5 75t17.5 109v553q0 59 -12.5 98t-59.5 87l41 81h266l41 -81q-37 -37 -51 -68q-20 -45 -20 -117v-553q0 -59 12 -98t59 -86l-41 -82h-266zM10 1168l133 266h82l133 -266h-40l-134 133l-133 -133h-41z" />
<glyph unicode="&#xef;" horiz-adv-x="368" d="M0 1239v92l20 41h113l21 -41v-92l-21 -41h-113zM10 82q37 37 54.5 75t17.5 109v553q0 59 -12.5 98t-59.5 87l41 81h266l41 -81q-37 -37 -51 -68q-20 -45 -20 -117v-553q0 -59 12 -98t59 -86l-41 -82h-266zM215 1239v92l21 41h112l21 -41v-92l-21 -41h-112z" />
<glyph unicode="&#xf0;" d="M0 512v102h61v185q0 92 -10 133t-41 72l41 81h389l21 -81q72 -102 104 -187q49 -124 49 -274q0 -145 -49 -273q-35 -88 -104 -188l-21 -82h-389l-41 82q31 31 41 72t10 133v225h-61zM276 164q0 -20 21 -21q35 0 63.5 102.5t28.5 297.5q0 178 -28.5 288.5t-63.5 110.5 q-20 0 -21 -20v-308h58v-102h-58v-348z" />
<glyph unicode="&#xf1;" horiz-adv-x="593" d="M0 1004l41 81h215l35 -153l119 -359v226q0 90 -13.5 130t-48.5 75l41 81h154l41 -81q-31 -31 -41.5 -72t-10.5 -133v-799h-143l-20 113l-168 501v-327q0 -94 15 -133t54 -72l-41 -82h-178l-41 82q31 31 41 72t10 133v512q0 90 -13 130t-48 75zM62 1209q0 47 47 102 q61 72 158 72q33 -33 53 -43q39 -18 111 -19h10l71 72h21q0 -47 -47 -102q-61 -72 -158 -72q-33 33 -53 43q-39 18 -111 18h-10l-72 -71h-20z" />
<glyph unicode="&#xf2;" horiz-adv-x="634" d="M10 164q18 18 29.5 66.5t11.5 138.5v348q0 86 -11 136t-30 69l164 163h287l164 -163q-18 -18 -29.5 -66.5t-11.5 -138.5v-348q0 -86 11.5 -136.5t29.5 -68.5l-164 -164h-287zM123 1414h184l123 -246h-61zM266 266q0 -123 51 -123q52 0 52 123v553q0 123 -52 123 q-51 0 -51 -123v-553z" />
<glyph unicode="&#xf3;" horiz-adv-x="634" d="M10 164q18 18 29.5 66.5t11.5 138.5v348q0 86 -11 136t-30 69l164 163h287l164 -163q-18 -18 -29.5 -66.5t-11.5 -138.5v-348q0 -86 11.5 -136.5t29.5 -68.5l-164 -164h-287zM205 1168l123 246h184l-246 -246h-61zM266 266q0 -123 51 -123q52 0 52 123v553q0 123 -52 123 q-51 0 -51 -123v-553z" />
<glyph unicode="&#xf4;" horiz-adv-x="634" d="M10 164q18 18 29.5 66.5t11.5 138.5v348q0 86 -11 136t-30 69l164 163h287l164 -163q-18 -18 -29.5 -66.5t-11.5 -138.5v-348q0 -86 11.5 -136.5t29.5 -68.5l-164 -164h-287zM143 1168l133 266h82l133 -266h-40l-134 133l-133 -133h-41zM266 266q0 -123 51 -123 q52 0 52 123v553q0 123 -52 123q-51 0 -51 -123v-553z" />
<glyph unicode="&#xf5;" horiz-adv-x="634" d="M10 164q18 18 29.5 66.5t11.5 138.5v348q0 86 -11 136t-30 69l164 163h287l164 -163q-18 -18 -29.5 -66.5t-11.5 -138.5v-348q0 -86 11.5 -136.5t29.5 -68.5l-164 -164h-287zM82 1209q0 47 47 102q61 72 158 72q33 -33 53 -43q39 -18 111 -19h10l71 72h21q0 -47 -47 -102 q-61 -72 -158 -72q-33 33 -53 43q-39 18 -111 18h-10l-72 -71h-20zM266 266q0 -123 51 -123q52 0 52 123v553q0 123 -52 123q-51 0 -51 -123v-553z" />
<glyph unicode="&#xf6;" horiz-adv-x="634" d="M10 164q18 18 29.5 66.5t11.5 138.5v348q0 86 -11 136t-30 69l164 163h287l164 -163q-18 -18 -29.5 -66.5t-11.5 -138.5v-348q0 -86 11.5 -136.5t29.5 -68.5l-164 -164h-287zM113 1249v103l20 41h123l20 -41v-103l-20 -41h-123zM266 266q0 -123 51 -123q52 0 52 123v553 q0 123 -52 123q-51 0 -51 -123v-553zM358 1249v103l21 41h123l20 -41v-103l-20 -41h-123z" />
<glyph unicode="&#xf7;" horiz-adv-x="440" d="M0 963l123 122h194l123 -122q-12 -12 -21 -51.5t-9 -102.5v-164l-164 -164q-41 -41 -41 -102v-92h-72l-41 82v102l82 123q29 41 45.5 86t16.5 88v113q0 92 -31 92q-27 0 -44.5 -61.5t-17.5 -194.5h-112v92q0 68 -8.5 103.5t-22.5 50.5zM92 31v143l17 31h153l14 -31v-143 l-14 -31h-153z" />
<glyph unicode="&#xf8;" horiz-adv-x="634" d="M10 164q18 18 29.5 66.5t11.5 138.5v348q0 86 -11 136t-30 69l164 163h287l41 123h61l-55 -170l117 -116q-18 -18 -29.5 -66.5t-11.5 -138.5v-348q0 -86 11.5 -136.5t29.5 -68.5l-164 -164h-287l-41 -123h-61l57 168zM250 358l119 523q-16 61 -52 61q-61 0 -61 -123v-348 zM266 184q14 -41 51 -41q61 0 62 123v328l6 113z" />
<glyph unicode="&#xf9;" horiz-adv-x="634" d="M10 1004l41 81h236l41 -81q-31 -31 -46.5 -76t-15.5 -129v-482q0 -74 17.5 -118.5t54.5 -44.5t54.5 44t17.5 119v482q0 90 -13.5 130t-48.5 75l41 81h195l41 -81q-31 -31 -41.5 -72t-10.5 -133v-430q0 -86 11.5 -136.5t29.5 -68.5l-163 -164h-267l-164 164 q18 18 29.5 66.5t11.5 138.5v430q0 92 -10 133t-41 72zM144 1414h184l123 -246h-61z" />
<glyph unicode="&#xfa;" horiz-adv-x="634" d="M10 1004l41 81h236l41 -81q-31 -31 -46.5 -76t-15.5 -129v-482q0 -74 17.5 -118.5t54.5 -44.5t54.5 44t17.5 119v482q0 90 -13.5 130t-48.5 75l41 81h195l41 -81q-31 -31 -41.5 -72t-10.5 -133v-430q0 -86 11.5 -136.5t29.5 -68.5l-163 -164h-267l-164 164 q18 18 29.5 66.5t11.5 138.5v430q0 92 -10 133t-41 72zM185 1168l123 246h184l-246 -246h-61z" />
<glyph unicode="&#xfb;" horiz-adv-x="634" d="M10 1004l41 81h236l41 -81q-31 -31 -46.5 -76t-15.5 -129v-482q0 -74 17.5 -118.5t54.5 -44.5t54.5 44t17.5 119v482q0 90 -13.5 130t-48.5 75l41 81h195l41 -81q-31 -31 -41.5 -72t-10.5 -133v-430q0 -86 11.5 -136.5t29.5 -68.5l-163 -164h-267l-164 164 q18 18 29.5 66.5t11.5 138.5v430q0 92 -10 133t-41 72zM153 1168l133 266h82l133 -266h-40l-134 133l-133 -133h-41z" />
<glyph unicode="&#xfc;" horiz-adv-x="634" d="M10 1004l41 81h236l41 -81q-31 -31 -46.5 -76t-15.5 -129v-482q0 -74 17.5 -118.5t54.5 -44.5t54.5 44t17.5 119v482q0 90 -13.5 130t-48.5 75l41 81h195l41 -81q-31 -31 -41.5 -72t-10.5 -133v-430q0 -86 11.5 -136.5t29.5 -68.5l-163 -164h-267l-164 164 q18 18 29.5 66.5t11.5 138.5v430q0 92 -10 133t-41 72zM102 1250v102l21 41h123l20 -41v-102l-20 -41h-123zM369 1250v102l20 41h123l20 -41v-102l-20 -41h-123z" />
<glyph unicode="&#xfd;" horiz-adv-x="481" d="M-51 1004l41 81h235l41 -81q-39 -31 -39 -72q0 -25 9 -51l51 -205l51 205q2 4 5 23.5t3 29.5q0 39 -39 70l41 81h144l40 -81q-29 -20 -43 -54.5t-38 -130.5l-113 -430v-102q0 -90 15.5 -129t52.5 -76l-41 -82h-259l-40 82q35 33 51 77t16 128v102l-102 430 q-23 96 -38.5 129t-43.5 56zM144 1168l123 246h184l-246 -246h-61z" />
<glyph unicode="&#xfe;" horiz-adv-x="573" d="M10 82q31 31 41 72t10 133v512q0 92 -10 133t-41 72l41 81h211l41 -81q-18 -18 -27.5 -40t-9.5 -73h185l143 -143q-10 -14 -20.5 -63.5t-10.5 -100.5t6 -99.5t15 -64.5l-174 -174h-144v-41q0 -55 10.5 -77t34.5 -46l-41 -82h-219zM266 399q0 -20 21 -20q25 0 53.5 56 t28.5 138q0 84 -28 134.5t-54 50.5q-20 0 -21 -21v-338z" />
<glyph unicode="&#xff;" horiz-adv-x="481" d="M-51 1004l41 81h235l41 -81q-39 -31 -39 -72q0 -25 9 -51l51 -205l51 205q2 4 5 23.5t3 29.5q0 39 -39 70l41 81h144l40 -81q-29 -20 -43 -54.5t-38 -130.5l-113 -430v-102q0 -90 15.5 -129t52.5 -76l-41 -82h-259l-40 82q35 33 51 77t16 128v102l-102 430 q-23 96 -38.5 129t-43.5 56zM41 1249v103l20 41h123l21 -41v-103l-21 -41h-123zM276 1249v103l21 41h123l20 -41v-103l-20 -41h-123z" />
<glyph unicode="&#x152;" horiz-adv-x="962" d="M20 164q18 18 29.5 66.5t11.5 138.5v737q0 86 -11 136t-30 69l164 164h758v-431h-113q-23 147 -57.5 220t-95.5 88l-21 -41v-430h11q35 0 53 48t18 105l82 -41v-368l-82 -41q0 53 -18.5 103t-52.5 50h-11v-573l21 -41q61 31 97 141.5t36 288.5h133v-553h-758zM307 256 q0 -123 51 -123q52 0 52 123v963q0 123 -52 122q-51 0 -51 -122v-963z" />
<glyph unicode="&#x153;" horiz-adv-x="819" d="M10 164q18 18 29.5 66.5t11.5 138.5v348q0 86 -11 136t-30 69l164 163h625v-337h-92q0 94 -32 151t-81 74l-21 -41v-297q72 0 72 113l62 -31v-266l-62 -31q0 53 -19.5 82.5t-52.5 29.5v-378l21 -41q92 61 92 286h113v-399h-625zM266 246q0 -123 51 -123q52 0 52 123v594 q0 123 -52 123q-51 0 -51 -123v-594z" />
<glyph unicode="&#x178;" horiz-adv-x="583" d="M-51 1393l41 82h276l41 -82q-37 -29 -37 -72q0 -20 6 -51l72 -348l72 348q6 31 6 53q0 41 -37 70l41 82h164l41 -82q-33 -25 -49.5 -56.5t-32.5 -107.5l-143 -656v-286q0 -70 12 -114t59 -91l-41 -82h-307l-41 82q37 37 54.5 79t17.5 126v286l-133 656 q-14 74 -31.5 106.5t-50.5 57.5zM92 1639v102l21 41h123l20 -41v-102l-20 -41h-123zM359 1639v102l20 41h123l20 -41v-102l-20 -41h-123z" />
<glyph unicode="&#x2c6;" horiz-adv-x="716" d="M184 1229l133 266h82l133 -266h-40l-134 133l-133 -133h-41z" />
<glyph unicode="&#x2dc;" horiz-adv-x="716" d="M123 1270q0 47 47 102q61 72 158 72q33 -33 53 -43q39 -18 111 -19h10l71 72h21q0 -47 -47 -102q-61 -72 -158 -72q-33 33 -53 43q-39 18 -111 18h-10l-72 -71h-20z" />
<glyph unicode="&#x2000;" horiz-adv-x="922" />
<glyph unicode="&#x2001;" horiz-adv-x="1844" />
<glyph unicode="&#x2002;" horiz-adv-x="922" />
<glyph unicode="&#x2003;" horiz-adv-x="1844" />
<glyph unicode="&#x2004;" />
<glyph unicode="&#x2005;" horiz-adv-x="461" />
<glyph unicode="&#x2006;" horiz-adv-x="307" />
<glyph unicode="&#x2007;" horiz-adv-x="307" />
<glyph unicode="&#x2008;" horiz-adv-x="230" />
<glyph unicode="&#x2009;" horiz-adv-x="368" />
<glyph unicode="&#x200a;" horiz-adv-x="102" />
<glyph unicode="&#x2010;" horiz-adv-x="409" d="M20 573v164h369v-164h-369z" />
<glyph unicode="&#x2011;" horiz-adv-x="409" d="M20 573v164h369v-164h-369z" />
<glyph unicode="&#x2012;" horiz-adv-x="409" d="M20 573v164h369v-164h-369z" />
<glyph unicode="&#x2013;" d="M0 573v103h614v-103h-614z" />
<glyph unicode="&#x2014;" horiz-adv-x="1024" d="M0 573v103h1024v-103h-1024z" />
<glyph unicode="&#x2018;" horiz-adv-x="368" d="M61 1085v185l41 82l164 164h41l-102 -205h82l20 -41v-185l-20 -41h-205z" />
<glyph unicode="&#x2019;" horiz-adv-x="368" d="M61 1004l103 204h-82l-21 41v185l21 41h205l20 -41v-185l-41 -82l-164 -163h-41z" />
<glyph unicode="&#x201a;" horiz-adv-x="368" d="M61 41v184l21 41h205l20 -41v-184l-41 -82l-164 -164h-41l103 205h-82z" />
<glyph unicode="&#x201c;" d="M41 1085v185l41 82l164 164h41l-103 -205h82l21 -41v-185l-21 -41h-205zM328 1085v185l41 82l163 164h41l-102 -205h82l20 -41v-185l-20 -41h-205z" />
<glyph unicode="&#x201d;" d="M41 1004l102 204h-82l-20 41v185l20 41h205l21 -41v-185l-41 -82l-164 -163h-41zM328 1004l102 204h-82l-20 41v185l20 41h205l20 -41v-185l-41 -82l-163 -163h-41z" />
<glyph unicode="&#x201e;" d="M41 41v184l20 41h205l21 -41v-184l-41 -82l-164 -164h-41l102 205h-82zM328 41v184l20 41h205l20 -41v-184l-41 -82l-163 -164h-41l102 205h-82z" />
<glyph unicode="&#x2022;" horiz-adv-x="696" d="M164 635v235l41 82h287l40 -82v-235l-40 -82h-287z" />
<glyph unicode="&#x2026;" horiz-adv-x="1310" d="M123 41v184l20 41h205l21 -41v-184l-21 -41h-205zM532 41v184l21 41h205l20 -41v-184l-20 -41h-205zM942 41v184l21 41h204l21 -41v-184l-21 -41h-204z" />
<glyph unicode="&#x202f;" horiz-adv-x="368" />
<glyph unicode="&#x2039;" horiz-adv-x="286" d="M20 635v82l160 389h66l-103 -430l103 -430h-66z" />
<glyph unicode="&#x203a;" horiz-adv-x="286" d="M41 246l102 430l-102 430h65l160 -389v-82l-160 -389h-65z" />
<glyph unicode="&#x205f;" horiz-adv-x="461" />
<glyph unicode="&#x2122;" horiz-adv-x="737" d="M61 1341v134h246v-134h-45q0 43 -9 66t-26 31l-6 -4v-256q0 -33 27 -52l-15 -20h-100l-14 20q18 12 20 17q8 12 8 35v256l-8 4q-14 -8 -23.5 -31t-9.5 -66h-45zM348 1126q16 12 17 52v225q0 39 -17 51l14 21h97l47 -185l45 185h92l14 -21q-18 -12 -18 -51v-225 q0 -40 18 -52l-14 -20h-86l-14 20q20 14 20 52v174l-61 -246h-31l-61 246v-174q0 -37 20 -52l-14 -20h-54z" />
<glyph unicode="&#x25fc;" horiz-adv-x="1085" d="M0 0v1085h1085v-1085h-1085z" />
</font>
</defs>
</svg>
